<svg xmlns="http://www.w3.org/2000/svg" xmlns:xlink="http://www.w3.org/1999/xlink" viewBox="0,0,256,256" width="48px" height="48px" fill-rule="nonzero"><defs><linearGradient x1="24" y1="21.217" x2="24" y2="46.652" gradientUnits="userSpaceOnUse" id="color-1"><stop offset="0" stop-color="#6f08f3"></stop><stop offset="0.219" stop-color="#7f1cf1"></stop><stop offset="1" stop-color="#9936f8"></stop></linearGradient><linearGradient x1="23.947" y1="25.198" x2="23.947" y2="-10.968" gradientUnits="userSpaceOnUse" id="color-2"><stop offset="0" stop-color="#9c5fe5"></stop><stop offset="1" stop-color="#bb2edc"></stop></linearGradient><linearGradient x1="23.947" y1="28.341" x2="23.947" y2="16.176" gradientUnits="userSpaceOnUse" id="color-3"><stop offset="0" stop-color="#c83edc"></stop><stop offset="1" stop-color="#d153e8"></stop></linearGradient></defs><g fill="none" fill-rule="nonzero" stroke="none" stroke-width="1" stroke-linecap="butt" stroke-linejoin="miter" stroke-miterlimit="10" stroke-dasharray="" stroke-dashoffset="0" font-family="none" font-weight="none" font-size="none" text-anchor="none" style="mix-blend-mode: normal"><g transform="scale(5.33333,5.33333)"><path d="M40,23h-32c-0.552,0 -1,0.448 -1,1v20c0,0.552 0.448,1 1,1h11c0.552,0 1,-0.448 1,-1v-10c0,-0.552 0.448,-1 1,-1h6c0.552,0 1,0.448 1,1v10c0,0.552 0.448,1 1,1h11c0.552,0 1,-0.448 1,-1v-20c0,-0.552 -0.448,-1 -1,-1z" fill="url(#color-1)"></path><path d="M4.805,26h38.284c0.342,0 0.646,-0.083 0.911,-0.218v-1.855c0,-2.166 -1.794,-3.927 -4,-3.927h-32c-2.206,0 -4,1.761 -4,3.927v1.907c0.24,0.104 0.509,0.166 0.805,0.166z" fill="#a04af8" opacity="0.1"></path><path d="M4.805,26h38.284c0.056,0 0.107,-0.009 0.161,-0.013v-2.059c0,-1.76 -1.457,-3.191 -3.25,-3.191h-32c-1.793,0 -3.25,1.431 -3.25,3.191v2.067c0.019,0 0.036,0.005 0.055,0.005z" fill="#a04af8" opacity="0.2"></path><path d="M42.5,26v-2.073c0,-1.354 -1.121,-2.455 -2.5,-2.455h-32c-1.379,0 -2.5,1.1 -2.5,2.455v2.073z" fill="#a04af8" opacity="0.3"></path><path d="M41.75,26v-2.073c0,-0.948 -0.784,-1.718 -1.75,-1.718h-32c-0.966,0 -1.75,0.77 -1.75,1.718v2.073z" fill="#a04af8" opacity="0.4"></path><path d="M41,26v-2.073c0,-0.542 -0.448,-0.982 -1,-0.982h-32c-0.552,0 -1,0.44 -1,0.982v2.073z" fill="#a04af8" opacity="0.5"></path><path d="M41,28v-4c0,-0.552 -0.448,-1 -1,-1h-32c-0.552,0 -1,0.448 -1,1v4z" fill="#9a43f1" opacity="0.1"></path><path d="M41,27.6v-3.6c0,-0.552 -0.448,-1 -1,-1h-32c-0.552,0 -1,0.448 -1,1v3.6z" fill="#9a43f1" opacity="0.15"></path><path d="M41,27.2v-3.2c0,-0.552 -0.448,-1 -1,-1h-32c-0.552,0 -1,0.448 -1,1v3.2z" fill="#9a43f1" opacity="0.2"></path><path d="M41,26.8v-2.8c0,-0.552 -0.448,-1 -1,-1h-32c-0.552,0 -1,0.448 -1,1v2.8z" fill="#9a43f1" opacity="0.25"></path><path d="M41,26.4v-2.4c0,-0.552 -0.448,-1 -1,-1h-32c-0.552,0 -1,0.448 -1,1v2.4z" fill="#9a43f1" opacity="0.3"></path><path d="M41,26v-2c0,-0.552 -0.448,-1 -1,-1h-32c-0.552,0 -1,0.448 -1,1v2z" fill="#9a43f1" opacity="0.3"></path><path d="M44.508,22.607l-7.508,-7.524v-9.098c0,-0.55 -0.448,-0.995 -1,-0.995h-3c-0.552,0 -1,0.446 -1,0.995v4.088l-6.634,-6.647c-0.782,-0.784 -2.056,-0.784 -2.838,0l-19.142,19.181c-1.253,1.256 -0.359,3.393 1.419,3.393h38.284c1.779,0 2.673,-2.137 1.419,-3.393z" fill="url(#color-2)"></path><path d="M23.947,3.336c0.403,0 0.781,0.157 1.064,0.441l6.634,6.647l0.855,0.856v-1.207v-4.088c0,-0.274 0.224,-0.498 0.5,-0.498h3c0.276,0 0.5,0.223 0.5,0.498v9.098v0.205l0.145,0.146l7.508,7.524c0.52,0.521 0.506,1.181 0.321,1.626c-0.186,0.444 -0.647,0.919 -1.385,0.919h-38.284c-0.738,0 -1.199,-0.475 -1.385,-0.919c-0.186,-0.444 -0.199,-1.105 0.321,-1.626l19.142,-19.181c0.284,-0.285 0.662,-0.441 1.064,-0.441v0M23.947,2.838c-0.514,0 -1.028,0.196 -1.419,0.588l-19.142,19.181c-1.253,1.256 -0.359,3.393 1.419,3.393h38.284c1.779,0 2.672,-2.137 1.419,-3.393l-7.508,-7.524v-9.098c0,-0.55 -0.448,-0.995 -1,-0.995h-3c-0.552,0 -1,0.446 -1,0.995v4.088l-6.634,-6.647c-0.391,-0.392 -0.905,-0.588 -1.419,-0.588z" fill="url(#color-3)"></path></g></g></svg>