<svg xmlns="http://www.w3.org/2000/svg"  viewBox="0 0 64 64" width="64px" height="64px"><linearGradient id="j_X~BTvN2mMeIiqT7fgCra" x1="32" x2="32" y1="9.672" y2="56.162" gradientUnits="userSpaceOnUse"><stop offset="0" stop-color="#6dc7ff"/><stop offset="1" stop-color="#e6abff"/></linearGradient><path fill="url(#j_X~BTvN2mMeIiqT7fgCra)" d="M32,7C18.19,7,7,18.19,7,32s11.19,25,25,25s25-11.19,25-25S45.81,7,32,7z M37,8.53 c1.03,0.22,2.03,0.5,3,0.85v18.94c-1,0.39-2,0.62-3,0.67V8.53z M29,8.19C29.98,8.07,30.98,8,32,8s2.02,0.07,3,0.19v20.69 c-0.99-0.18-1.8-0.52-2.65-0.88c-1.01-0.42-2.05-0.85-3.35-0.97V8.19z M31.58,29.85c1.18,0.49,2.52,1.05,4.37,1.15 c0.19,0.01,0.38,0.01,0.57,0.01c1,0,2.01-0.15,3.01-0.43L34.23,40h-4.46l-5.45-9.69c1.25-0.81,2.5-1.26,3.72-1.31 C29.4,28.94,30.41,29.36,31.58,29.85z M24,9.38c0.97-0.35,1.97-0.63,3-0.85v18.58c-1.01,0.16-2.01,0.51-3,1.05V9.38z"/><linearGradient id="j_X~BTvN2mMeIiqT7fgCrb" x1="32" x2="32" y1="6" y2="58" gradientUnits="userSpaceOnUse"><stop offset="0" stop-color="#1a6dff"/><stop offset="1" stop-color="#c822ff"/></linearGradient><path fill="url(#j_X~BTvN2mMeIiqT7fgCrb)" d="M32,6C17.66,6,6,17.66,6,32c0,14.34,11.66,26,26,26s26-11.66,26-26C58,17.66,46.34,6,32,6z M32,56C18.77,56,8,45.23,8,32c0-9.67,5.75-18.01,14-21.81V30c0,0.17,0.04,0.34,0.13,0.49l9,16C31.31,46.8,31.64,47,32,47 s0.69-0.2,0.87-0.51l9-16C41.96,30.34,42,30.17,42,30V10.19c8.25,3.8,14,12.14,14,21.81C56,45.23,45.23,56,32,56z M28.04,29 c1.36-0.06,2.37,0.36,3.54,0.85c1.18,0.49,2.52,1.05,4.37,1.15c0.19,0.01,0.38,0.01,0.57,0.01c1,0,2.01-0.15,3.01-0.43L34.23,40 h-4.46l-5.45-9.69C25.57,29.5,26.82,29.05,28.04,29z M24,28.16V9.38c0.97-0.35,1.97-0.63,3-0.85v18.58 C25.99,27.27,24.99,27.62,24,28.16z M37,28.99V8.53c1.03,0.22,2.03,0.5,3,0.85v18.94C39,28.71,38,28.94,37,28.99z M35,28.88 c-0.99-0.18-1.8-0.52-2.65-0.88c-1.01-0.42-2.05-0.85-3.35-0.97V8.19C29.98,8.07,30.98,8,32,8s2.02,0.07,3,0.19V28.88z"/></svg>